<svg width="120" height="120" viewBox="0 0 120 120" fill="none" xmlns="http://www.w3.org/2000/svg">
<path fill-rule="evenodd" clip-rule="evenodd" d="M24.925 10C18.075 10 13.01 15.995 13.24 22.49C13.455 28.74 13.175 36.825 11.14 43.42C9.09 50.03 5.64 54.22 0 54.76V60.835C5.64 61.37 9.095 65.56 11.135 72.175C13.175 78.77 13.455 86.855 13.235 93.1C13.01 99.6 18.075 105.595 24.925 105.595H95.085C101.935 105.595 107 99.6 106.77 93.1C106.555 86.855 106.835 78.77 108.87 72.175C110.915 65.56 114.36 61.375 120 60.835V54.76C114.36 54.22 110.915 50.03 108.87 43.42C106.835 36.82 106.555 28.735 106.77 22.49C107 15.99 101.93 10 95.085 10H24.925ZM81.35 68.845C81.35 77.795 74.675 83.22 63.6 83.22H44.745C44.2053 83.22 43.6877 83.0056 43.306 82.624C42.9244 82.2423 42.71 81.7247 42.71 81.185V34.405C42.7113 33.8662 42.9263 33.3498 43.3078 32.9693C43.6893 32.5887 44.2062 32.375 44.745 32.375H63.495C72.73 32.375 78.795 37.375 78.795 45.06C78.795 50.45 74.715 55.275 69.52 56.125V56.405C76.595 57.18 81.355 62.08 81.355 68.845H81.35ZM61.55 38.82H50.8V54.01H59.855C66.855 54.01 70.715 51.19 70.715 46.15C70.715 41.43 67.395 38.82 61.55 38.82ZM50.8 60.035V76.77H61.95C69.235 76.77 73.1 73.845 73.1 68.35C73.1 62.85 69.13 60.035 61.48 60.035H50.8Z" fill="#00EAD3"/>
</svg>
