<svg width="120" height="120" viewBox="0 0 120 120" fill="none" xmlns="http://www.w3.org/2000/svg">
<path d="M25.4 0H30.81V5.345H35.76V0H41.17V16.18H35.76V10.765H30.81V16.18H25.405V0H25.4Z" fill="#00EAD3"/>
<path d="M48.28 5.365H43.52V0H58.455V5.365H53.69V16.18H48.28V5.365Z" fill="#00EAD3"/>
<path d="M60.825 0H66.465L69.935 5.685L73.4 0H79.04V16.18H73.655V8.16L69.935 13.915H69.84L66.115 8.165V16.18H60.825V0V0Z" fill="#00EAD3"/>
<path d="M81.73 0H87.145V10.835H94.745V16.185H81.73V0V0Z" fill="#00EAD3"/>
<path fill-rule="evenodd" clip-rule="evenodd" d="M25.23 110.36L15 23.585H105L94.765 110.35L59.95 120L25.23 110.36ZM45.915 62.86L44.945 51.96H85.67L86.62 41.32H33.32L36.19 73.505H73.075L71.84 87.305L59.97 90.515H59.96L48.11 87.315L47.35 78.83H36.66L38.15 95.54L59.95 101.59L81.785 95.54L84.445 65.72L84.705 62.865H45.915V62.86Z" fill="#00EAD3"/>
</svg>
