<svg width="120" height="120" viewBox="0 0 120 120" fill="none" xmlns="http://www.w3.org/2000/svg">
<path d="M37.51 0H50.4V5.39H42.9V10.78H50.4V16.17H37.51V0Z" fill="#00EAD3"/>
<path d="M52.975 0H65.87V4.69H58.37V5.625H65.87V16.405H52.975V11.485H60.475V10.545H52.975V0Z" fill="#00EAD3"/>
<path d="M68.45 0H81.335V4.69H73.835V5.625H81.335V16.405H68.45V11.485H75.95V10.545H68.45V0Z" fill="#00EAD3"/>
<path fill-rule="evenodd" clip-rule="evenodd" d="M59.955 120L25.235 110.36L15 23.585H105L94.77 110.35L59.955 120ZM35.235 62.865L36.19 73.505H73.075L71.84 87.305L59.97 90.515H59.96L48.11 87.315L47.35 78.83H36.665L38.155 95.54L59.955 101.59L81.79 95.54L84.45 65.72L84.71 62.865L86.63 41.32H33.32L34.29 51.965H74.97L74 62.865H35.235V62.865Z" fill="#00EAD3"/>
</svg>
