<svg width="120" height="120" viewBox="0 0 120 120" fill="none" xmlns="http://www.w3.org/2000/svg">
<g clip-path="url(#clip0_4_84)">
<path d="M117.735 54.6525L65.34 2.265C64.6226 1.54727 63.7709 0.977905 62.8334 0.589449C61.8959 0.200992 60.891 0.00105286 59.8762 0.00105286C58.8615 0.00105286 57.8566 0.200992 56.9191 0.589449C55.9816 0.977905 55.1299 1.54727 54.4125 2.265L43.5375 13.14L57.3375 26.94C58.965 26.3843 60.716 26.2974 62.3906 26.6891C64.0651 27.0809 65.5959 27.9355 66.808 29.1554C68.0202 30.3754 68.8649 31.9116 69.2459 33.5887C69.6268 35.2657 69.5286 37.0161 68.9625 38.64L82.26 51.945C84.2273 51.2523 86.3719 51.2502 88.3406 51.939C90.3093 52.6279 91.9847 53.9666 93.091 55.7348C94.1973 57.5029 94.6685 59.5951 94.4271 61.6668C94.1856 63.7385 93.2458 65.6662 91.7625 67.1325C90.2609 68.6433 88.2813 69.5859 86.1619 69.7993C84.0425 70.0127 81.9147 69.4836 80.1421 68.3025C78.3694 67.1213 77.0619 65.3613 76.4428 63.3231C75.8236 61.285 75.9313 59.0951 76.7475 57.1275L64.35 44.7225V77.37C66.2344 78.3028 67.7422 79.8533 68.6221 81.763C69.502 83.6727 69.7008 85.8263 69.1853 87.8648C68.6698 89.9033 67.4713 91.7035 65.7894 92.9655C64.1076 94.2275 62.044 94.8749 59.9427 94.7998C57.8414 94.7248 55.8292 93.9318 54.2417 92.5531C52.6541 91.1744 51.5871 89.2932 51.2183 87.2231C50.8496 85.153 51.2015 83.0191 52.2154 81.177C53.2292 79.3349 54.8438 77.896 56.79 77.1V44.1525C55.6672 43.6924 54.6465 43.0146 53.7869 42.1582C52.9272 41.3018 52.2456 40.2837 51.7812 39.1626C51.3169 38.0415 51.0791 36.8396 51.0814 35.6262C51.0838 34.4127 51.3263 33.2118 51.795 32.0925L38.1975 18.4875L2.2725 54.4125C1.55476 55.1299 0.985402 55.9817 0.596945 56.9191C0.208489 57.8566 0.00854921 58.8615 0.00854921 59.8763C0.00854921 60.891 0.208489 61.8959 0.596945 62.8334C0.985402 63.7709 1.55476 64.6226 2.2725 65.34L54.6675 117.735C55.3849 118.453 56.2366 119.022 57.1741 119.411C58.1116 119.799 59.1165 119.999 60.1313 119.999C61.146 119.999 62.1509 119.799 63.0884 119.411C64.0259 119.022 64.8776 118.453 65.595 117.735L117.743 65.5875C119.19 64.1377 120.003 62.1726 120.003 60.1238C120.003 58.0749 119.19 56.1098 117.743 54.66" fill="#00EAD3"/>
</g>
<defs>
<clipPath id="clip0_4_84">
<rect width="120" height="120" fill="white"/>
</clipPath>
</defs>
</svg>
