<svg width="120" height="120" viewBox="0 0 120 120" fill="none" xmlns="http://www.w3.org/2000/svg">
<path d="M94.7475 57.3975C94.7475 51.0375 92.46 46.635 90.5025 43.2075L89.9025 42.2325C87.525 38.4075 85.4475 35.0475 85.4475 31.1325C85.4475 26.4075 89.0325 21.9975 94.0875 21.9975C94.2375 21.9975 94.38 22.0125 94.5225 22.02L94.755 22.0425C85.2763 13.3361 72.8704 8.51186 60 8.5275C51.47 8.52312 43.073 10.6412 35.5655 14.6908C28.0581 18.7404 21.6762 24.5943 16.995 31.725C18.195 31.7625 19.3425 31.7925 20.31 31.7925C25.6875 31.7925 34.02 31.14 34.02 31.14C36.795 30.975 37.125 35.0475 34.35 35.3775C34.35 35.3775 31.5675 35.7075 28.4625 35.865L47.2125 91.62L58.4625 57.825L50.4375 35.8575C47.67 35.6925 45.045 35.37 45.045 35.37C42.27 35.205 42.6 30.96 45.3675 31.125C45.3675 31.125 53.8725 31.7775 58.9275 31.7775C64.3125 31.7775 72.6525 31.125 72.6525 31.125C75.4275 30.96 75.75 35.04 72.975 35.37C72.975 35.37 70.185 35.6925 67.0875 35.8575L85.6875 91.185L90.8175 74.0325L91.2225 72.735C93.2475 66.285 94.74 61.5225 94.74 57.39L94.7475 57.3975ZM8.5275 60C8.52699 69.6656 11.2476 79.1361 16.378 87.3277C21.5083 95.5193 28.8412 102.101 37.5375 106.32L12.975 39.045C10.0337 45.639 8.51816 52.7798 8.5275 60V60Z" fill="#00EAD3"/>
<path d="M45.4575 109.372L60.9075 64.5L76.725 107.85C76.83 108.097 76.95 108.33 77.0925 108.555C66.8958 112.147 55.8261 112.433 45.4575 109.372V109.372ZM105.158 35.3025C105.383 36.945 105.51 38.7 105.51 40.5975C105.51 45.8175 104.535 51.69 101.595 59.0325L85.875 104.482C97.4753 97.7427 105.984 86.7382 109.588 73.8151C113.191 60.8919 111.604 47.0724 105.165 35.3025H105.158Z" fill="#00EAD3"/>
<path fill-rule="evenodd" clip-rule="evenodd" d="M0 60C0 26.9175 26.9175 0 60 0C93.075 0 120 26.9175 120 60C120 93.0825 93.075 120 60 120C26.9175 120 0 93.0825 0 60ZM2.7525 60C2.7525 91.5675 28.4325 117.248 60 117.248C91.56 117.248 117.24 91.5675 117.24 60C117.24 28.425 91.56 2.7525 60 2.7525C28.425 2.7525 2.7525 28.425 2.7525 60Z" fill="#00EAD3"/>
</svg>
