<svg width="120" height="120" viewBox="0 0 120 120" fill="none" xmlns="http://www.w3.org/2000/svg">
<path d="M64.115 75.61C61.53 75.61 60.035 78.065 60.035 81.34C60.035 84.645 61.59 86.97 64.135 86.97C66.72 86.97 68.195 84.52 68.195 81.24C68.195 78.22 66.74 75.61 64.115 75.61V75.61Z" fill="#00EAD3"/>
<path d="M70 10H30C27.3478 10 24.8043 11.0536 22.9289 12.9289C21.0536 14.8043 20 17.3478 20 20V100C20 102.652 21.0536 105.196 22.9289 107.071C24.8043 108.946 27.3478 110 30 110H90C92.6522 110 95.1957 108.946 97.0711 107.071C98.9464 105.196 100 102.652 100 100V40L70 10ZM40.11 83.52C40.11 88.325 37.805 90 34.11 90C33.23 90 32.08 89.855 31.325 89.6L31.755 86.525C32.275 86.7 32.95 86.825 33.71 86.825C35.305 86.825 36.31 86.1 36.31 83.475V72.865H40.115V83.52H40.11ZM47.405 89.975C45.48 89.975 43.575 89.475 42.63 88.95L43.405 85.795C44.425 86.32 46.01 86.85 47.635 86.85C49.385 86.85 50.305 86.12 50.305 85.025C50.305 83.97 49.51 83.37 47.485 82.645C44.675 81.67 42.85 80.115 42.85 77.665C42.85 74.785 45.255 72.58 49.235 72.58C51.135 72.58 52.53 72.98 53.54 73.435L52.68 76.51C52.005 76.185 50.805 75.71 49.155 75.71C47.505 75.71 46.7 76.46 46.7 77.335C46.7 78.41 47.65 78.89 49.835 79.715C52.815 80.815 54.215 82.365 54.215 84.745C54.22 87.575 52.035 89.975 47.405 89.975ZM63.935 90C58.93 90 56.005 86.225 56.005 81.42C56.005 76.36 59.235 72.58 64.215 72.58C69.39 72.58 72.22 76.46 72.22 81.115C72.215 86.65 68.865 90 63.935 90V90ZM88.67 89.725H84.66L81.055 83.215C79.9766 81.2842 79.0002 79.2982 78.13 77.265L78.05 77.29C78.155 79.515 78.205 81.895 78.205 84.65V89.73H74.7V72.865H79.155L82.66 79.045C83.66 80.815 84.66 82.92 85.42 84.82H85.49C85.24 82.595 85.165 80.32 85.165 77.79V72.865H88.675V89.725H88.67ZM70 45H65V20L90 45H70Z" fill="#00EAD3"/>
</svg>
