<svg width="120" height="120" viewBox="0 0 120 120" fill="none" xmlns="http://www.w3.org/2000/svg">
<path d="M90 78.75V33.75H82.5V86.25H112.5V78.75H90Z" fill="#00EAD3"/>
<path d="M67.5 33.75H52.5C50.5109 33.75 48.6032 34.5402 47.1967 35.9467C45.7902 37.3532 45 39.2609 45 41.25V78.75C45 80.7391 45.7902 82.6468 47.1967 84.0533C48.6032 85.4598 50.5109 86.25 52.5 86.25H56.25V93.75C56.25 95.7391 57.0402 97.6468 58.4467 99.0533C59.8532 100.46 61.7609 101.25 63.75 101.25H71.25V93.75H63.75V86.25H67.5C69.4891 86.25 71.3968 85.4598 72.8033 84.0533C74.2098 82.6468 75 80.7391 75 78.75V41.25C75 39.2609 74.2098 37.3532 72.8033 35.9467C71.3968 34.5402 69.4891 33.75 67.5 33.75ZM52.5 78.75V41.25H67.5V78.75H52.5Z" fill="#00EAD3"/>
<path d="M30 86.25H7.5V78.75H30V63.75H15C13.0109 63.75 11.1032 62.9598 9.6967 61.5533C8.29018 60.1468 7.5 58.2391 7.5 56.25V41.25C7.5 39.2609 8.29018 37.3532 9.6967 35.9467C11.1032 34.5402 13.0109 33.75 15 33.75H37.5V41.25H15V56.25H30C31.9891 56.25 33.8968 57.0402 35.3033 58.4467C36.7098 59.8532 37.5 61.7609 37.5 63.75V78.75C37.5 80.7391 36.7098 82.6468 35.3033 84.0533C33.8968 85.4598 31.9891 86.25 30 86.25Z" fill="#00EAD3"/>
</svg>
