<svg width="120" height="120" viewBox="0 0 120 120" fill="none" xmlns="http://www.w3.org/2000/svg">
<path d="M85.6463 0C80.9797 0.0355084 76.3401 0.711829 71.8575 2.01L71.5463 2.11125C68.726 1.62264 65.8729 1.3481 63.0113 1.29C57.1125 1.18875 52.05 2.61375 47.97 4.99875C43.9463 3.615 35.6063 1.18875 26.8163 1.68C20.7075 2.01 14.025 3.86625 9.06 9.10125C4.14 14.3175 1.52625 22.4025 2.07 33.42C2.22375 36.4462 3.08625 41.385 4.53 47.8087C5.955 54.2175 7.96875 61.7175 10.4888 68.5725C13.0088 75.4087 15.7575 81.5588 20.0588 85.7363C22.2038 87.825 25.1738 89.6063 28.6688 89.4525C31.1138 89.3513 33.3188 88.2787 35.235 86.6962C36.1688 87.9262 37.17 88.4513 38.0663 88.9425C39.2213 89.5688 40.3125 89.9962 41.4675 90.2737C43.5375 90.7987 47.0738 91.485 51.2138 90.78C52.7213 90.5087 54.1906 90.0567 55.59 89.4338L55.7663 94.335C55.98 99.51 56.1225 104.295 57.66 108.495C57.915 109.181 58.6013 112.695 61.2938 115.819C64.0088 118.943 69.2775 120.877 75.315 119.587C79.5563 118.687 84.9638 117.049 88.56 111.934C92.115 106.894 93.7163 99.6488 94.0313 87.8888C94.1063 87.2438 94.2075 86.7188 94.3013 86.2088L95.1413 86.2875H95.2425C99.7725 86.4825 104.696 85.8375 108.818 83.9212C112.448 82.2412 115.204 80.5425 117.214 77.5162C117.705 76.77 118.268 75.855 118.41 74.2913C118.564 72.75 117.664 70.305 116.179 69.1763C113.213 66.9113 111.338 67.77 109.324 68.2013C107.352 68.6262 105.344 68.8672 103.328 68.9212C109.106 59.1975 113.246 48.8475 115.613 39.7012C117.019 34.29 117.803 29.31 117.859 24.9563C117.938 20.6025 117.57 16.755 114.968 13.4175C106.804 3.0075 95.3363 0.1125 86.4713 0.01875H85.65L85.6463 0ZM85.41 3.20625C93.7913 3.1275 104.509 5.47125 112.204 15.3113C113.944 17.52 114.454 20.7412 114.394 24.7275C114.334 28.7137 113.595 33.4575 112.245 38.6737C109.65 48.795 104.704 60.5475 97.7738 71.1188C98.0122 71.2984 98.2748 71.4436 98.5538 71.55C99.9975 72.1537 103.298 72.66 109.898 71.3138C111.559 70.9575 112.774 70.7287 114.041 71.685C114.349 71.9444 114.592 72.272 114.751 72.6418C114.909 73.0116 114.98 73.4133 114.956 73.815C114.888 74.424 114.659 75.0038 114.293 75.495C113.021 77.4037 110.509 79.2262 107.284 80.73C104.434 82.0537 100.328 82.74 96.72 82.7813C94.8863 82.8 93.2063 82.6613 91.7738 82.2113L91.6988 82.1963C91.1475 87.4875 89.8838 97.9575 89.0588 102.72C88.3988 106.564 87.2438 109.635 85.0388 111.919C82.83 114.225 79.725 115.59 75.525 116.49C70.3313 117.604 66.5588 116.411 64.1213 114.36C61.6838 112.309 60.5663 109.575 59.9025 107.914C59.4375 106.763 59.2013 105.277 58.9688 103.282C58.7135 100.901 58.5434 98.5103 58.4588 96.1163C58.305 91.9163 58.245 87.7163 58.305 83.4975C56.1383 85.4841 53.4466 86.8065 50.55 87.3075C47.0963 87.8925 44.0288 87.3075 42.195 86.8575C41.2903 86.6267 40.4175 86.2854 39.5963 85.8413C38.7375 85.3913 37.935 84.885 37.3913 83.865C37.0779 83.2809 36.981 82.6049 37.1175 81.9562C37.2796 81.2974 37.6587 80.7123 38.1938 80.295C39.1875 79.4888 40.5 79.0462 42.4688 78.6337C46.065 77.8875 47.3325 77.385 48.0938 76.7737C48.7388 76.2675 49.485 75.2138 50.7675 73.6688C50.7675 73.6125 50.7675 73.5338 50.7488 73.4738C48.4249 73.403 46.1502 72.7877 44.1075 71.6775C43.3688 72.4575 39.5175 76.5225 34.8525 82.1475C32.8988 84.4875 30.7313 85.8375 28.4288 85.9387C26.145 86.0325 24.0675 84.885 22.3125 83.1825C18.7988 79.7625 15.9825 73.8825 13.5413 67.2412C11.1 60.6 9.1275 53.2013 7.7025 46.9125C6.29625 40.6013 5.45625 35.5237 5.33625 33.0825C4.81125 22.6725 7.25251 15.6637 11.43 11.2275C15.6075 6.79125 21.3338 5.13375 26.9213 4.80375C36.9413 4.2375 46.47 7.7325 48.3863 8.475C52.095 5.955 56.88 4.395 62.8575 4.48875C65.6902 4.53041 68.5088 4.89783 71.2575 5.58375L71.3588 5.52375C72.5681 5.10491 73.8001 4.75435 75.0488 4.47375C78.4427 3.67727 81.913 3.25103 85.3988 3.2025L85.41 3.20625ZM86.1713 6.54375H85.4325C82.5825 6.5775 79.7063 6.915 76.9163 7.51875C83.145 10.275 87.8513 14.5088 91.17 18.7688C93.4763 21.6975 95.37 24.9187 96.8138 28.3575C97.3838 29.6887 97.755 30.7988 97.95 31.6575C98.0663 32.0888 98.1263 32.4562 98.1638 32.8275C98.1638 33.0225 98.1825 33.2212 98.085 33.5512C98.085 33.57 98.0663 33.6113 98.0663 33.63C98.2275 38.0063 97.1325 40.9687 96.99 45.15C96.8963 48.18 97.6763 51.735 97.8713 55.62C98.0475 59.2687 97.6013 63.2737 95.235 67.2187C95.43 67.455 95.6063 67.6875 95.8013 67.9425C102.071 58.0575 106.601 47.1413 109.005 37.8225C110.295 32.8013 110.974 28.2525 111.034 24.6638C111.094 21.0675 110.43 18.45 109.568 17.3588C102.848 8.7825 93.7688 6.5925 86.1675 6.54L86.1713 6.54375ZM62.205 7.83C56.31 7.84875 52.0688 9.63 48.8513 12.3037C45.525 15.0787 43.3013 18.8475 41.8575 22.7325C40.1175 27.3225 39.5138 31.7738 39.2775 34.8038L39.3563 34.7625C41.4383 33.5967 43.6739 32.7294 45.9975 32.1863C48.4988 31.5975 51.2138 31.4213 53.6513 32.3813C56.115 33.315 58.125 35.5612 58.8675 38.94C62.3888 55.23 57.7763 61.2863 56.0775 65.8538C55.4325 67.515 54.8663 69.195 54.4163 70.9125C54.63 70.8712 54.8475 70.8113 55.0613 70.7925C56.2725 70.6988 57.2063 71.0887 57.7575 71.3212C59.4788 72.0412 60.6488 73.5262 61.2938 75.225C61.4521 75.6887 61.5688 76.1656 61.6425 76.65C61.7071 76.8526 61.7412 77.0636 61.7438 77.2763C61.5469 83.505 61.5656 89.7388 61.8 95.9662C61.92 98.6625 62.0963 101.025 62.31 102.9C62.5238 104.756 62.8163 106.181 63.015 106.669C63.6563 108.27 64.5938 110.359 66.2963 111.784C67.9763 113.213 70.395 114.15 74.8313 113.213C78.675 112.373 81.0413 111.236 82.62 109.597C84.2063 107.936 85.14 105.653 85.7438 102.158C86.6625 96.9038 88.4775 81.6675 88.695 78.8175C88.6013 76.6462 88.9088 74.9888 89.6138 73.7175C90.315 72.4275 91.41 71.6288 92.37 71.1975C92.835 70.9838 93.285 70.8488 93.6563 70.7288C93.2634 70.1807 92.8595 69.6406 92.445 69.1088C91.0763 67.448 89.9512 65.6007 89.1038 63.6225C88.714 62.793 88.2835 61.9832 87.8138 61.1963C87.1538 60.0075 86.3138 58.5 85.4325 56.8013C83.6738 53.4413 81.7613 49.3425 80.7638 45.3563C79.77 41.37 79.635 37.2525 82.1738 34.3613C84.42 31.7813 88.3838 30.7125 94.2975 31.3162C94.1213 30.7875 94.0275 30.3375 93.7313 29.655C92.3862 26.4958 90.6325 23.5267 88.515 20.8237C83.4938 14.4 75.3488 8.02875 62.7938 7.815L62.205 7.83ZM29.0063 8.085C28.3745 8.08433 27.7429 8.10434 27.1125 8.145C22.0538 8.44125 17.2875 9.9 13.8675 13.515C10.4513 17.1488 8.20875 23.0663 8.6925 32.8912C8.79375 34.7662 9.5925 39.96 10.9763 46.1513C12.3675 52.3463 14.3363 59.6325 16.7025 66.075C19.0613 72.4988 21.9188 78.105 24.6525 80.76C26.0175 82.0687 27.2063 82.6162 28.2825 82.5787C29.3588 82.5187 30.6675 81.8925 32.2688 79.98C35.1746 76.4738 38.1911 73.0608 41.3138 69.7463C39.0992 67.8184 37.4053 65.3643 36.3882 62.6099C35.3711 59.8555 35.0635 56.8895 35.4938 53.985C36 50.295 36.0788 46.8338 36 44.1C35.9438 41.445 35.7638 39.69 35.7638 38.5762V38.4563L35.745 38.4225C35.745 32.6588 36.765 26.9587 38.715 21.5475C40.1213 17.8125 42.195 14.0475 45.315 10.9763C42.2513 9.96 36.7988 8.44125 30.9038 8.145C30.2733 8.10446 29.6417 8.08445 29.01 8.085H29.0063ZM90.9938 34.4887C87.6 34.5487 85.7025 35.43 84.69 36.5587C83.28 38.1825 83.145 41.0325 84.0263 44.55C84.9 48.0638 86.7225 51.99 88.4213 55.2562C89.2613 56.895 90.0825 58.3613 90.7425 59.55C91.4288 60.7613 91.9163 61.6013 92.2088 62.3438C92.4825 63.0075 92.7975 63.5925 93.1088 64.14C94.4175 61.365 94.6538 58.65 94.515 55.8C94.3388 52.2863 93.5213 48.69 93.6563 45.06C93.795 40.8 94.635 38.025 94.695 34.7438C93.4703 34.5818 92.2366 34.4966 91.0013 34.4887H90.9938ZM49.8263 35.0812C48.7913 35.0812 47.7563 35.2163 46.74 35.4525C44.7259 35.9369 42.787 36.6926 40.9763 37.6988C40.3669 38.0285 39.7861 38.4086 39.24 38.835L39.12 38.9287C39.1613 39.675 39.2963 41.43 39.3563 44.0475C39.4163 46.8975 39.3563 50.5275 38.8125 54.4575C37.6013 63.0113 43.8113 70.0838 51.0975 70.1025C51.5288 68.3438 52.2263 66.5625 52.9313 64.6912C54.96 59.22 58.9463 55.2375 55.5863 39.6525C55.0425 37.1138 53.9475 36.0788 52.44 35.4938C51.6012 35.1985 50.7152 35.0599 49.8263 35.085V35.0812ZM89.415 36.0938H89.67C89.9813 36.1125 90.2963 36.135 90.5663 36.21C90.8101 36.2577 91.0428 36.3506 91.2525 36.4838C91.35 36.5422 91.4336 36.6211 91.4977 36.715C91.5618 36.8088 91.6048 36.9154 91.6238 37.0275V37.0688C91.6228 37.3086 91.5622 37.5444 91.4475 37.755C91.2999 38.0244 91.1171 38.2728 90.9038 38.4938C90.3995 39.0575 89.7159 39.4298 88.9688 39.5475C88.2458 39.6402 87.5143 39.4597 86.9175 39.0413C86.6811 38.8698 86.4648 38.6723 86.2725 38.4525C86.1038 38.275 85.9938 38.0497 85.9575 37.8075C85.9355 37.5764 86.0056 37.346 86.1525 37.1663C86.3262 36.9888 86.5244 36.8372 86.7413 36.7163C87.225 36.4425 87.87 36.2475 88.6163 36.1462C88.8863 36.1125 89.16 36.09 89.415 36.0713V36.0938ZM50.31 36.9337C50.565 36.9337 50.8613 36.9525 51.135 36.99C51.915 37.11 52.5788 37.305 53.1038 37.6163C53.3611 37.7416 53.5878 37.9222 53.7675 38.145C53.9623 38.38 54.0602 38.6804 54.0413 38.985C53.9879 39.2737 53.8584 39.543 53.6663 39.765C53.4606 40.0155 53.2178 40.233 52.9463 40.41C52.2964 40.8769 51.4935 41.0793 50.7 40.9763C49.8962 40.847 49.1598 40.4491 48.6113 39.8475C48.3809 39.5999 48.1831 39.3239 48.0225 39.0262C47.8475 38.7608 47.7718 38.4421 47.8088 38.1262C47.8875 37.6012 48.3375 37.305 48.7688 37.1512C49.26 36.99 49.785 36.9375 50.31 36.9562V36.9337ZM95.6063 73.65H95.5875C94.8675 73.9237 94.2638 74.025 93.7538 74.2612C93.2376 74.4559 92.8133 74.8374 92.565 75.33C92.2313 75.9 91.98 76.9162 92.055 78.6487C92.2806 78.811 92.5333 78.9316 92.8013 79.005C93.6413 79.26 95.085 79.4363 96.6863 79.4138C99.87 79.3725 103.796 78.6338 105.885 77.655C107.592 76.8639 109.177 75.8321 110.591 74.5913C103.62 76.0163 99.6975 75.645 97.2713 74.6512C96.6752 74.3933 96.1165 74.0566 95.61 73.65H95.6063ZM55.4513 74.1187H55.35C55.08 74.1375 54.705 74.2388 53.9438 75.06C52.2038 77.01 51.6 78.24 50.175 79.3762C48.7313 80.5275 46.875 81.135 43.1438 81.8963C42.3479 82.0387 41.5731 82.2806 40.8375 82.6163C40.9725 82.7363 40.9725 82.7775 41.1863 82.8713C41.7375 83.1863 42.435 83.4412 43.005 83.595C44.6063 83.985 47.22 84.4537 49.9763 83.985C52.71 83.5162 55.56 82.2037 58.005 78.7912C58.4363 78.2062 58.47 77.325 58.1213 76.3875C57.7725 75.4725 57.0075 74.6513 56.4825 74.4375C56.1539 74.2846 55.8055 74.1786 55.4475 74.1225L55.4513 74.1187Z" fill="#00EAD3"/>
</svg>
