<svg width="120" height="155" viewBox="0 0 120 155" fill="none" xmlns="http://www.w3.org/2000/svg">
<path d="M84.61 0H97.725V90.52H84.61V0ZM63.98 64.7H77.095V77.55H63.98V64.7ZM63.98 29.515H77.095V56.745H63.98V29.515ZM63.98 85.5H77.095V112.73H63.98V85.5ZM22.28 29.48H35.39V120H22.275L22.28 29.48ZM43.345 42.275H56.46V55.125H43.35L43.345 42.275ZM43.345 63.03H56.46V90.265H43.35L43.345 63.03ZM43.345 7.095H56.46V34.325H43.35L43.345 7.095Z" fill="#00EAD3"/>
<path d="M7.04 129.59C7.58 128.65 8.38 127.87 9.44 127.25C10.52 126.61 11.77 126.29 13.19 126.29C14.65 126.29 15.97 126.64 17.15 127.34C18.35 128.04 19.29 129.03 19.97 130.31C20.65 131.57 20.99 133.04 20.99 134.72C20.99 136.38 20.65 137.86 19.97 139.16C19.29 140.46 18.35 141.47 17.15 142.19C15.97 142.91 14.65 143.27 13.19 143.27C11.79 143.27 10.55 142.96 9.47 142.34C8.41 141.7 7.6 140.91 7.04 139.97V150.8H4.31V126.56H7.04V129.59ZM18.2 134.72C18.2 133.48 17.95 132.4 17.45 131.48C16.95 130.56 16.27 129.86 15.41 129.38C14.57 128.9 13.64 128.66 12.62 128.66C11.62 128.66 10.69 128.91 9.83 129.41C8.99 129.89 8.31 130.6 7.79 131.54C7.29 132.46 7.04 133.53 7.04 134.75C7.04 135.99 7.29 137.08 7.79 138.02C8.31 138.94 8.99 139.65 9.83 140.15C10.69 140.63 11.62 140.87 12.62 140.87C13.64 140.87 14.57 140.63 15.41 140.15C16.27 139.65 16.95 138.94 17.45 138.02C17.95 137.08 18.2 135.98 18.2 134.72ZM23.5634 134.72C23.5634 133.04 23.9034 131.57 24.5834 130.31C25.2634 129.03 26.1934 128.04 27.3734 127.34C28.5734 126.64 29.9034 126.29 31.3634 126.29C32.8034 126.29 34.0534 126.6 35.1134 127.22C36.1734 127.84 36.9634 128.62 37.4834 129.56V126.56H40.2434V143H37.4834V139.94C36.9434 140.9 36.1334 141.7 35.0534 142.34C33.9934 142.96 32.7534 143.27 31.3334 143.27C29.8734 143.27 28.5534 142.91 27.3734 142.19C26.1934 141.47 25.2634 140.46 24.5834 139.16C23.9034 137.86 23.5634 136.38 23.5634 134.72ZM37.4834 134.75C37.4834 133.51 37.2334 132.43 36.7334 131.51C36.2334 130.59 35.5534 129.89 34.6934 129.41C33.8534 128.91 32.9234 128.66 31.9034 128.66C30.8834 128.66 29.9534 128.9 29.1134 129.38C28.2734 129.86 27.6034 130.56 27.1034 131.48C26.6034 132.4 26.3534 133.48 26.3534 134.72C26.3534 135.98 26.6034 137.08 27.1034 138.02C27.6034 138.94 28.2734 139.65 29.1134 140.15C29.9534 140.63 30.8834 140.87 31.9034 140.87C32.9234 140.87 33.8534 140.63 34.6934 140.15C35.5534 139.65 36.2334 138.94 36.7334 138.02C37.2334 137.08 37.4834 135.99 37.4834 134.75ZM52.8669 126.26C54.8669 126.26 56.4869 126.87 57.7269 128.09C58.9669 129.29 59.5869 131.03 59.5869 133.31V143H56.8869V133.7C56.8869 132.06 56.4769 130.81 55.6569 129.95C54.8369 129.07 53.7169 128.63 52.2969 128.63C50.8569 128.63 49.7069 129.08 48.8469 129.98C48.0069 130.88 47.5869 132.19 47.5869 133.91V143H44.8569V126.56H47.5869V128.9C48.1269 128.06 48.8569 127.41 49.7769 126.95C50.7169 126.49 51.7469 126.26 52.8669 126.26ZM63.0263 134.72C63.0263 133.04 63.3663 131.57 64.0463 130.31C64.7263 129.03 65.6563 128.04 66.8363 127.34C68.0363 126.64 69.3763 126.29 70.8563 126.29C72.1363 126.29 73.3263 126.59 74.4263 127.19C75.5263 127.77 76.3663 128.54 76.9463 129.5V120.8H79.7063V143H76.9463V139.91C76.4063 140.89 75.6063 141.7 74.5463 142.34C73.4863 142.96 72.2463 143.27 70.8263 143.27C69.3663 143.27 68.0363 142.91 66.8363 142.19C65.6563 141.47 64.7263 140.46 64.0463 139.16C63.3663 137.86 63.0263 136.38 63.0263 134.72ZM76.9463 134.75C76.9463 133.51 76.6963 132.43 76.1963 131.51C75.6963 130.59 75.0163 129.89 74.1563 129.41C73.3163 128.91 72.3863 128.66 71.3663 128.66C70.3463 128.66 69.4163 128.9 68.5763 129.38C67.7363 129.86 67.0663 130.56 66.5663 131.48C66.0663 132.4 65.8163 133.48 65.8163 134.72C65.8163 135.98 66.0663 137.08 66.5663 138.02C67.0663 138.94 67.7363 139.65 68.5763 140.15C69.4163 140.63 70.3463 140.87 71.3663 140.87C72.3863 140.87 73.3163 140.63 74.1563 140.15C75.0163 139.65 75.6963 138.94 76.1963 138.02C76.6963 137.08 76.9463 135.99 76.9463 134.75ZM83.2998 134.72C83.2998 133.04 83.6398 131.57 84.3198 130.31C84.9998 129.03 85.9298 128.04 87.1098 127.34C88.3098 126.64 89.6398 126.29 91.0998 126.29C92.5398 126.29 93.7898 126.6 94.8498 127.22C95.9098 127.84 96.6998 128.62 97.2198 129.56V126.56H99.9798V143H97.2198V139.94C96.6798 140.9 95.8698 141.7 94.7898 142.34C93.7298 142.96 92.4898 143.27 91.0698 143.27C89.6098 143.27 88.2898 142.91 87.1098 142.19C85.9298 141.47 84.9998 140.46 84.3198 139.16C83.6398 137.86 83.2998 136.38 83.2998 134.72ZM97.2198 134.75C97.2198 133.51 96.9698 132.43 96.4698 131.51C95.9698 130.59 95.2898 129.89 94.4298 129.41C93.5898 128.91 92.6598 128.66 91.6398 128.66C90.6198 128.66 89.6898 128.9 88.8498 129.38C88.0098 129.86 87.3398 130.56 86.8398 131.48C86.3398 132.4 86.0898 133.48 86.0898 134.72C86.0898 135.98 86.3398 137.08 86.8398 138.02C87.3398 138.94 88.0098 139.65 88.8498 140.15C89.6898 140.63 90.6198 140.87 91.6398 140.87C92.6598 140.87 93.5898 140.63 94.4298 140.15C95.2898 139.65 95.9698 138.94 96.4698 138.02C96.9698 137.08 97.2198 135.99 97.2198 134.75ZM110.413 143.27C109.153 143.27 108.023 143.06 107.023 142.64C106.023 142.2 105.233 141.6 104.653 140.84C104.073 140.06 103.753 139.17 103.693 138.17H106.513C106.593 138.99 106.973 139.66 107.653 140.18C108.353 140.7 109.263 140.96 110.383 140.96C111.423 140.96 112.243 140.73 112.843 140.27C113.443 139.81 113.743 139.23 113.743 138.53C113.743 137.81 113.423 137.28 112.783 136.94C112.143 136.58 111.153 136.23 109.813 135.89C108.593 135.57 107.593 135.25 106.813 134.93C106.053 134.59 105.393 134.1 104.833 133.46C104.293 132.8 104.023 131.94 104.023 130.88C104.023 130.04 104.273 129.27 104.773 128.57C105.273 127.87 105.983 127.32 106.903 126.92C107.823 126.5 108.873 126.29 110.053 126.29C111.873 126.29 113.343 126.75 114.463 127.67C115.583 128.59 116.183 129.85 116.263 131.45H113.533C113.473 130.59 113.123 129.9 112.483 129.38C111.863 128.86 111.023 128.6 109.963 128.6C108.983 128.6 108.203 128.81 107.623 129.23C107.043 129.65 106.753 130.2 106.753 130.88C106.753 131.42 106.923 131.87 107.263 132.23C107.623 132.57 108.063 132.85 108.583 133.07C109.123 133.27 109.863 133.5 110.803 133.76C111.983 134.08 112.943 134.4 113.683 134.72C114.423 135.02 115.053 135.48 115.573 136.1C116.113 136.72 116.393 137.53 116.413 138.53C116.413 139.43 116.163 140.24 115.663 140.96C115.163 141.68 114.453 142.25 113.533 142.67C112.633 143.07 111.593 143.27 110.413 143.27Z" fill="#00EAD3"/>
</svg>
