<svg width="120" height="120" viewBox="0 0 120 120" fill="none" xmlns="http://www.w3.org/2000/svg">
<g clip-path="url(#clip0_21_2)">
<path fill-rule="evenodd" clip-rule="evenodd" d="M102.215 0H15.81C12.943 0 10.1934 1.13891 8.16618 3.16618C6.13891 5.19344 5 7.94301 5 10.81V109.2C5 115.17 9.85 120 15.81 120H102.21C103.628 120.001 105.033 119.722 106.344 119.179C107.654 118.637 108.845 117.841 109.848 116.838C110.851 115.835 111.647 114.644 112.189 113.334C112.732 112.023 113.011 110.618 113.01 109.2V10.81C113.011 9.39088 112.733 7.98542 112.191 6.67395C111.649 5.36248 110.853 4.17071 109.85 3.16678C108.847 2.16285 107.656 1.36643 106.345 0.823057C105.034 0.279681 103.629 -6.08332e-07 102.21 0L102.215 0ZM107.005 109.2C107.005 111.85 104.86 114 102.215 114H15.81C15.179 114.001 14.554 113.877 13.9708 113.636C13.3876 113.395 12.8575 113.042 12.4109 112.596C11.9642 112.15 11.6098 111.621 11.3677 111.038C11.1256 110.456 11.0007 109.831 11 109.2V10.81C11 8.15 13.16 6 15.81 6H102.21C104.86 6 107.01 8.15 107.01 10.81V109.2H107.005ZM32.005 102.005L45.51 90.005L32 78V102L32.005 102.005ZM80.79 53.36C78.36 50.92 73.925 48.005 66.51 48.005C58.375 48.005 49.995 50.125 44.01 52.065V18H32V70.05L40.485 66.205C40.625 66.14 54.3 60.01 66.51 60.01C72.6 60.01 73.95 63.36 74.015 66.165V102.015H86.005V66.015C86.02 65.24 85.945 58.585 80.79 53.365V53.36ZM65 37.5H77.005C82.43 31.36 85.19 24.82 86.005 18.005H74.01C72.675 24.805 69.72 31.305 65 37.505" fill="#00EAD3"/>
</g>
<defs>
<clipPath id="clip0_21_2">
<rect width="120" height="120" fill="white"/>
</clipPath>
</defs>
</svg>
