<svg width="120" height="160" viewBox="0 0 120 160" fill="none" xmlns="http://www.w3.org/2000/svg">
<g clip-path="url(#clip0_4_10)">
<path d="M35.8598 98.8941C31.2895 95.164 26.4131 91.5896 23.0817 86.5527C16.0687 77.6705 10.6706 67.3892 6.98016 56.5831C4.74891 49.5558 3.98484 42.0222 1.10672 35.2676C-1.89985 30.3601 1.62469 24.9994 6.80531 23.4403C9.11016 22.9792 13.1653 20.7217 8.27016 22.3373C3.88078 25.6764 3.45797 19.3026 7.95797 18.899C11.0292 18.4764 12.1598 15.8692 11.1084 13.5222C7.81031 11.29 19.103 8.84088 13.4203 5.51103C7.50469 -1.11268 21.6984 -2.38782 18.1959 5.13607C17.3587 10.9209 28.1175 4.07346 25.6191 10.755C28.1573 13.9643 35.1216 11.487 34.9467 15.9864C38.6433 16.25 39.9122 19.4748 43.3786 19.7228C46.9772 21.4084 53.4942 22.7341 54.7167 26.9384C51.1495 29.8675 42.8916 20.8871 42.4927 28.9965C43.5717 40.9785 43.2966 53.3209 47.5205 64.7305C49.5183 71.6382 54.3642 77.0758 58.7381 82.4569C62.9255 87.7257 68.5959 91.4374 74.377 94.56C79.4466 97.0403 84.9122 98.684 90.4388 99.718C92.6794 97.94 96.6361 91.3289 100.13 94.1146C100.299 97.2508 93.1945 100.666 99.7969 100.319C103.677 99.1042 106.365 103.429 109.559 99.5268C112.502 103.143 121.789 97.2183 119.696 104.609C116.864 106.505 112.735 105.359 109.9 107.967C105.225 105.544 101.504 110.133 96.3267 109.554C90.5798 110.622 84.7308 111.052 78.9047 111.061C69.3441 110.278 59.5819 109.948 50.4872 106.494C45.3623 104.95 40.3631 101.922 35.8598 98.8941V98.8941ZM43.9336 102.526C48.9361 104.768 53.8284 107.134 59.3119 107.849C68.0109 109.103 76.9945 111.036 85.7241 109.274C81.7734 107.424 77.6874 109.993 73.7517 107.951C69.0314 109.004 63.9652 107.681 59.1642 107.029C53.708 104.508 47.8177 102.774 42.7078 99.4981C36.3197 97.0787 46.0092 102.602 47.7347 103.051C51.7256 105.4 43.3448 101.845 42.1613 100.869C38.8181 98.9228 38.3925 99.3299 41.8312 101.305C42.5236 101.725 43.2075 102.167 43.9336 102.526V102.526ZM34.4133 95.5458C39.2625 97.4094 34.3917 92.0093 32.1727 92.3215C31.1883 90.5498 28.4119 89.4303 30.3703 88.4795C26.8486 89.7488 26.6798 83.6552 25.0252 84.5272C21.2977 83.3061 23.5748 78.9807 19.1334 76.3229C18.7284 73.5237 14.7225 71.0974 13.4475 66.8771C12.8836 64.7149 8.92031 58.5109 11.3541 64.285C13.4259 69.8437 17.0705 74.6082 20.1052 79.3625C22.4592 83.8901 25.2427 88.6259 29.5308 91.45C30.9778 92.8905 32.3719 95.094 34.4128 95.5458H34.4133ZM20.4487 79.6358C20.6166 78.8757 21.3347 81.2795 20.4487 79.6358V79.6358ZM40.222 97.778C41.2945 97.2791 38.677 97.1487 40.222 97.778V97.778ZM42.8517 98.774C42.5794 97.3997 41.6503 99.5434 42.8517 98.774V98.774ZM46.147 100.199C47.7131 98.649 43.7283 99.2214 46.147 100.199V100.199ZM51.7931 103.464C52.7461 102.004 48.743 102.914 51.7931 103.464V103.464ZM40.9519 95.6226C43.3847 93.9876 37.8037 95.5998 40.9519 95.6226V95.6226ZM43.4222 96.9007C43.3514 96.0384 42.5423 97.2883 43.4222 96.9007V96.9007ZM55.7714 104.898C57.7575 106.199 67.3673 107.748 61.3505 105.432C60.3413 105.652 50.1928 102.453 55.7714 104.898V104.898ZM36.1669 89.0553C35.9737 88.1912 33.0825 88.0983 36.1669 89.0553V89.0553ZM41.9138 92.535C43.4123 91.4505 38.8088 91.6985 41.9138 92.535V92.535ZM46.7503 95.61C48.8991 94.7706 43.2689 94.7672 46.7503 95.61V95.61ZM33.825 86.4127C36.1547 88.2661 43.2234 86.651 37.3927 85.3063C34.7414 83.84 28.7644 82.8358 32.8387 86.1904L33.825 86.4127ZM50.0278 96.6716C50.9991 94.9574 45.9567 95.6917 50.0278 96.6716V96.6716ZM45.1045 92.6133C50.7998 94.2833 40.3139 88.8735 43.6983 91.9966L44.4497 92.3497L45.1045 92.6133ZM54.9755 98.5318C60.3698 98.5853 50.1014 97.7595 54.9755 98.5318V98.5318ZM31.7503 83.1747C31.5384 82.1321 30.42 83.2613 31.7503 83.1747V83.1747ZM64.1002 103.842C64.2441 101.96 62.3405 105.245 64.1002 103.842V103.842ZM40.958 89.0233C40.6298 88.0312 39.2723 88.9819 40.958 89.0233V89.0233ZM32.2617 82.5202C35.3583 82.3266 28.0195 81.105 32.2617 82.5202V82.5202ZM21.9595 75.6124C21.5737 74.0708 18.5911 72.8433 21.9595 75.6124V75.6124ZM49.0041 93.4186C48.4369 92.747 48.7369 93.5645 49.0041 93.4186V93.4186ZM65.8345 104.136C65.783 103.108 64.9181 104.523 65.8345 104.136V104.136ZM47.5144 91.822C47.8181 90.4992 44.8725 91.4208 47.5144 91.822V91.822ZM34.9744 83.576C37.2797 83.3211 31.2806 81.9604 34.9744 83.576V83.576ZM56.1863 97.2509C59.7783 95.7749 52.6856 96.5316 56.1863 97.2509V97.2509ZM45.1542 89.4819C49.2919 90.0343 40.2286 86.5591 44.2439 89.1696L45.1542 89.4819ZM59.5355 98.6558C63.4013 96.2617 62.1263 104.269 66.0928 99.3333C70.0036 96.3696 62.7145 102.997 67.5333 99.8614C71.0213 97.441 76.1705 101.009 79.4231 102.17C81.7613 102.052 84.0361 104.269 86.4356 102.92C91.0519 101.629 77.4061 101.006 80.9827 98.7191C76.7592 99.9952 73.6392 97.1993 71.5608 94.3913C66.8217 93.2557 61.3444 90.7439 58.9781 86.3903C58.0125 84.7592 60.3703 86.6228 58.1447 83.9514C55.2909 81.318 53.8659 78.3251 51.9497 75.1232C49.6598 73.8573 49.3903 70.1272 49.1602 74.9997C49.1789 71.9242 46.3955 69.8539 45.7148 70.7127C45.7027 67.7515 48.6947 69.2368 46.6008 67.0459C46.1508 63.9767 44.6667 60.7781 44.2219 57.3116C43.53 55.6421 44.1234 52.0647 41.8561 55.8454C41.0311 59.8429 41.5833 50.9355 42.8677 53.8709C44.5533 50.8752 42.2602 51.2277 42.1683 51.6416C43.2661 49.1137 42.8644 45.5261 41.8805 46.8936C42.4659 44.2126 42.8063 37.0291 41.0072 38.3042C42.098 35.4996 43.0763 25.475 38.3367 29.2985C36.4181 29.3267 33.0928 30.0207 31.5234 30.8314C36.4491 33.6491 31.0266 31.8488 29.0189 31.4004C28.7583 34.0081 26.7722 32.8822 24.2892 32.9075C28.2558 33.4162 22.358 37.1142 20.0873 35.6776C17.1323 37.1405 22.6345 40.7976 20.1455 41.9293C20.4525 43.6309 15.6211 41.3131 15.9984 45.2499C13.132 43.9961 15.6061 49.9181 17.0405 47.9149C21.9173 49.2854 20.4736 52.4051 20.5959 55.3717C19.8019 57.0981 16.6725 51.3109 19.8998 51.5784C17.3527 47.2876 17.0836 50.026 14.9681 52.02C14.4778 52.1634 20.363 54.8562 16.6697 56.1858C19.9186 56.7076 20.0137 59.6586 20.6761 61.5256C22.6284 63.6363 22.2262 59.1937 24.5658 61.7323C23.0845 59.4709 16.7306 55.3615 21.847 56.6794C21.8189 54.4054 20.9208 52.57 22.4902 52.6143C24.0445 49.6983 20.8627 59.8079 24.3633 56.1002C25.3312 55.6615 25.5741 53.1808 27.315 56.3356C29.8434 58.918 28.2286 60.7869 24.6605 58.4214C25.298 60.6697 29.4328 61.4707 28.6542 64.9853C29.4783 68.0764 30.6314 66.9374 31.6364 66.7594C32.4239 69.7615 32.8725 67.5546 32.9091 66.1233C36.5166 66.9257 35.6705 69.1385 36.8011 70.684C39.2869 71.8473 33.2428 62.794 37.5098 67.9616C41.9995 72.1688 39.1955 73.9239 35.1652 73.2504C37.7152 73.0364 38.5359 76.8282 41.7277 76.6945C44.6362 78.1316 46.6073 83.646 41.5927 81.3496C39.8545 79.7214 33.6961 77.7148 38.7267 80.8093C43.3673 83.0415 47.0578 84.374 51.5358 87.1762C54.7392 89.5485 56.1239 92.2665 57.338 92.8049C54.6441 94.1398 49.222 91.7394 53.2491 91.005C50.7356 90.5308 47.91 89.2115 50.3156 92.4581C52.3631 94.2327 57.5648 94.0445 58.5 94.2449C57.7092 96.0516 56.3517 96.195 58.5305 96.3346C56.0995 97.6798 59.3123 97.8899 59.5359 98.6558H59.5355ZM54.5639 84.0881C53.0836 82.4822 52.7006 79.4772 54.3005 82.0902C55.1222 82.4341 56.9278 87.0045 54.5639 84.0881ZM70.7578 94.7604C71.6803 94.6972 70.785 95.4879 70.7578 94.7604V94.7604ZM52.2291 80.1513C52.17 77.7245 52.7616 82.0236 52.2291 80.1513V80.1513ZM50.6194 77.9059C48.7561 74.1758 52.9641 78.9617 50.6194 77.9059V77.9059ZM31.1123 63.9392C32.2069 63.6363 31.6519 65.8782 31.1123 63.9392V63.9392ZM46.6378 72.6682C47.3091 70.0508 47.4258 74.863 46.6378 72.6682V72.6682ZM35.6705 64.7558C34.8984 63.3124 37.2863 66.1112 35.6705 64.7558V64.7558ZM45.0806 67.8853C43.3181 63.7895 46.3313 65.6462 45.473 68.5564L45.0806 67.8853ZM28.8506 56.6561C28.0631 55.3114 26.76 51.3678 27.18 50.1632C27.5569 52.125 31.1986 58.6028 28.9636 52.8472C26.4966 48.0229 31.9158 54.4112 32.4736 55.6168C32.7342 56.8127 30.9502 55.2895 32.1577 58.097C29.9541 54.9009 30.8578 59.8624 28.8506 56.6561ZM23.8359 53.0694C24.0412 49.9434 24.9825 55.2127 23.8359 53.0694V53.0694ZM26.092 53.8767C27.1678 51.5181 27.9155 57.1653 26.092 53.8767V53.8767ZM20.6634 49.5208C18.7964 47.593 17.4445 45.8189 20.752 48.3244C22.0242 48.3755 17.9203 44.2894 21.0591 47.0269C24.3567 47.6508 22.6861 52.6405 20.6634 49.5208ZM23.5139 49.4444C24.5995 48.3283 24.0905 50.5415 23.5139 49.4444V49.4444ZM25.2703 50.026C23.6241 46.8299 27.2658 51.3683 25.2703 50.026V50.026ZM21.7823 46.5698C16.3542 41.5538 28.6022 49.1896 22.6683 47.4977L21.7823 46.5698ZM37.3378 55.9441C34.987 54.4842 36.7125 45.6569 37.5159 51.6927C39.7997 50.9257 37.3894 54.8124 39.0909 54.774C38.8247 57.2251 38.0616 58.1073 37.3378 55.9441ZM43.0913 59.4738C43.3209 56.8127 43.5755 61.2936 43.0913 59.4738V59.4738ZM42.0923 58.4467C42.3497 57.3116 42.1167 59.7856 42.0923 58.4467V58.4467ZM22.8455 44.9221C19.358 39.929 32.9822 49.9716 25.0805 46.188C24.2555 45.9623 23.2598 45.8826 22.8455 44.9221ZM33.9262 51.0157C33.5958 46.8115 34.6622 51.7112 33.9262 51.0157V51.0157ZM42.337 56.6147C42.9867 54.2206 42.3867 58.1992 42.337 56.6147V56.6147ZM23.3822 43.0172C25.4545 42.5561 31.9706 46.792 25.9875 44.2257C25.3228 43.4622 23.9034 43.8089 23.3822 43.0167V43.0172ZM41.1811 52.2203C41.4028 47.9212 42.4205 49.654 41.1905 52.8375L41.1811 52.2198V52.2203ZM24.9239 41.5198C25.7695 40.2344 22.6795 35.7097 25.3678 39.8974C26.5303 40.8545 28.7302 41.5003 26.7872 41.904C29.843 44.6998 26.0428 42.6612 24.9239 41.5198ZM40.3012 50.8786C40.8844 45.9813 40.8169 53.7469 40.3012 50.8786V50.8786ZM23.1581 36.9975C23.805 36.7105 23.5012 37.8904 23.1581 36.9975V36.9975ZM27.1706 39.4748C28.2028 37.226 29.0738 41.9803 27.1706 39.4748V39.4748ZM38.4839 46.0032C38.4745 45.1414 38.6981 47.2594 38.4839 46.0032V46.0032ZM37.8277 44.4995C36.2583 40.4795 39.2902 46.6267 37.8277 44.4995V44.4995ZM36.8648 41.8626C36.6023 40.2023 37.7602 43.949 36.8648 41.8626V41.8626ZM38.4342 39.217C37.3556 37.2479 39.7959 30.5352 40.0688 34.6981C38.9311 37.9419 39.7406 39.7549 40.5309 35.4043C41.9967 31.9825 40.2155 42.1622 38.4342 39.217ZM40.0467 29.2348C40.5164 28.6366 40.1512 29.956 40.0467 29.2348V29.2348ZM37.3533 84.2913C36.7153 83.7126 37.4353 84.6575 37.3533 84.2913V84.2913ZM42.9009 87.2015C45.9872 88.0253 45.9722 86.705 43.1822 86.3105C41.6836 84.8642 36.9478 83.3279 41.1872 86.1326C41.4666 86.8708 42.3525 86.8513 42.9009 87.2015ZM31.9463 79.6513C33.6441 80.9688 38.3489 83.3785 34.3673 80.1547C35.7098 78.5352 31.7986 77.674 33.0956 76.5899C29.7942 74.4934 30.4894 74.6811 32.8045 74.7482C28.838 72.9065 33.3773 73.0466 33.1631 72.1026C31.6336 71.7904 25.5642 69.3034 29.1352 72.3059C25.5061 70.3879 28.2703 73.0213 27.1734 72.7446C23.4609 71.6951 30.4781 75.6771 26.5847 74.6879C28.7123 76.4367 32.3138 79.1718 27.4828 76.5384C26.8486 77.4892 30.9408 78.9301 31.9458 79.6513H31.9463ZM37.748 83.1115C44.8013 85.4682 34.2872 80.2271 37.748 83.1115V83.1115ZM67.4499 101.779C67.5417 100.325 66.487 103.019 67.4499 101.779V101.779ZM70.5028 103.111C72.1303 101.477 70.5703 105.719 73.2 102.711C73.2272 100.557 73.1203 99.2861 70.178 101.903C69.3652 102.37 69.0042 104.351 70.5028 103.112V103.111ZM22.0425 71.5371C21.5423 69.4984 18.5386 69.5071 22.0425 71.5371V71.5371ZM25.3003 73.7527C24.0895 71.6703 20.9812 71.8673 25.3003 73.7527V73.7527ZM43.8478 85.3569C45.66 87.0269 52.1639 86.5814 46.0463 85.564C45.1416 84.1741 40.2956 84.5082 43.8478 85.3569ZM69.3408 101.694C72.127 99.2671 66.6408 102.775 69.3408 101.694V101.694ZM75.1373 105.824C75.1552 105.045 73.9359 106.165 75.1373 105.824V105.824ZM75.1467 104.733C78.233 101.344 72.158 104.934 75.1467 104.733V104.733ZM14.0236 64.5719C11.3939 60.6794 12.39 58.9301 9.85219 55.7501C9.37031 53.3175 5.49984 47.8031 7.85062 53.6448C10.0022 57.0636 10.6397 62.3548 14.0241 64.5719H14.0236ZM74.1778 103.655C79.8581 99.8483 71.8486 101.998 74.1778 103.655V103.655ZM78.5123 105.417C81.3567 102.885 76.7128 104.889 78.5123 105.417V105.417ZM21.0764 67.2331C21.8892 65.9769 18.9741 67.0712 21.0764 67.2331V67.2331ZM77.6077 104.214C80.3602 102.374 76.9734 102.656 77.1084 104.383L77.6077 104.214ZM40.2492 79.7851C40.1545 78.5386 38.7937 79.8901 40.2492 79.7851V79.7851ZM42.5573 81.1623C41.8219 79.6231 41.4295 81.404 42.5573 81.1623V81.1623ZM82.0247 105.459C85.5525 102.818 79.8886 104.952 81.2859 105.961L82.0247 105.459ZM80.6733 104.781C83.5481 102.284 77.6414 105.887 80.6733 104.781V104.781ZM87.5752 109.548C89.5041 108.209 85.2309 109.115 87.5752 109.548V109.548ZM22.8455 66.3271C25.4292 66.9277 33.1777 72.9318 28.6078 66.7439C26.2664 66.0251 27.6703 60.0876 25.2825 61.137C26.8856 63.9164 26.5997 65.0957 23.2341 63.3474C19.0078 61.2037 20.8589 64.4066 21.6872 65.2907C20.5584 65.5577 23.1764 66.3052 22.845 66.3266L22.8455 66.3271ZM11.0658 56.676C11.5284 54.6879 6.80203 45.7488 8.83453 52.195C9.56672 53.5465 9.49078 56.106 11.0658 56.676V56.676ZM32.6873 70.5056C31.3542 69.3515 32.6231 70.3402 32.6873 70.5056V70.5056ZM35.9639 71.2983C35.9639 69.1925 32.3414 70.4423 35.9639 71.2983V71.2983ZM64.3786 89.8792C63.8363 88.4411 62.2364 89.8471 64.3786 89.8792V89.8792ZM65.7427 90.9121C65.5397 90.1078 64.9542 91.0682 65.7427 90.9121V90.9121ZM77.0039 98.2741C78.0863 97.4444 75.652 98.1666 77.0039 98.2741V98.2741ZM16.9481 58.2342C20.0466 56.9902 13.628 57.3467 16.9481 58.2342V58.2342ZM61.8769 87.5983C61.8408 85.5188 59.9002 88.1172 61.8769 87.5983V87.5983ZM15.7247 55.273C17.7141 54.5775 13.8825 54.8158 15.7247 55.273V55.273ZM21.4997 58.1763C21.4655 57.493 20.8898 58.4375 21.4997 58.1763V58.1763ZM91.9528 103C94.5122 102.462 100.345 104.352 101.286 102.297C98.1783 102.218 90.5367 100.02 90.1749 102.818L90.8555 102.93L91.9533 103H91.9528ZM23.3353 58.6568C23.3822 56.5481 21.7509 58.5775 23.3353 58.6568V58.6568ZM8.15156 47.7267C7.46203 43.7097 5.5275 47.1188 8.15156 47.7267V47.7267ZM11.7712 48.6712C11.8177 47.38 8.45719 47.5103 11.7712 48.6712V48.6712ZM13.8403 49.727C13.2427 49.2241 13.3744 50.3592 13.8403 49.727V49.727ZM26.8641 58.3927C27.4777 57.8072 25.4114 57.9604 26.8641 58.3927V58.3927ZM12.4641 47.3484C12.112 44.3147 8.26781 46.8936 12.4641 47.3484V47.3484ZM5.03672 42.349C4.93219 40.9498 4.31297 42.8766 5.03672 42.349V42.349ZM6.14297 41.4848C5.9625 39.824 5.19281 41.6939 6.14297 41.4848V41.4848ZM12.2437 45.262C14.8247 44.2125 7.54406 43.0867 11.7164 45.0651L12.2437 45.262ZM93.9122 97.6C95.5641 96.0292 91.8155 97.1137 93.9122 97.6V97.6ZM103.779 102.904C104.441 100.876 102.111 103.172 103.779 102.904V102.904ZM12.8672 41.9453C13.1405 39.9806 10.8202 42.3363 12.8672 41.9453V41.9453ZM4.18453 35.9101C3.71859 33.137 3.78281 28.268 8.24297 29.9122C2.28984 31.1397 12.3656 37.5913 11.0934 32.497C13.5975 32.6249 15.9919 30.9617 14.6766 33.4828C19.6116 32.9201 23.0297 28.481 27.7955 29.1045C31.507 28.5929 35.5655 28.2077 39.5658 26.6558C42.8545 26.4107 46.0205 22.7375 44.2191 20.5593C39.7345 20.1654 35.0381 20.747 30.082 21.7712C24.5897 22.9539 19.5998 25.2051 14.0573 26.1724C8.65312 26.9262 15.1425 28.2456 13.5942 28.5413C10.777 29.5558 16.957 30.2395 13.2295 31.3109C10.928 30.8567 8.53078 30.0363 9.51469 27.5176C4.34062 28.2169 -0.208126 30.4428 3.88125 35.9062L4.185 35.9091L4.18453 35.9101ZM16.657 29.3204C17.8678 24.6843 23.1548 33.137 18.6431 29.9375C18.1064 29.5173 17.2172 29.1769 16.657 29.3204ZM16.8923 27.0716C18.6431 25.7206 17.8214 27.8322 16.8923 27.0716V27.0716ZM19.1147 27.1105C19.275 24.9766 24.2067 28.2393 19.9275 27.877L19.1147 27.1101V27.1105ZM22.1555 25.8417C23.2683 24.4927 22.478 27.0371 22.1555 25.8417V25.8417ZM22.9345 25.3014C24.7856 22.9958 33.4078 23.8284 27.0966 25.0748C25.4044 23.752 24.1083 25.8539 22.9345 25.3014ZM34.1892 23.5011C33.9108 17.2008 39.7833 25.7367 34.1892 23.5011V23.5011ZM37.3837 23.4816C38.5509 20.3084 41.9166 22.207 37.9261 22.8426C38.0114 23.183 37.8066 24.4839 37.3837 23.4816ZM11.6086 40.3171C15.0961 38.1005 7.90547 38.3937 11.6086 40.3171V40.3171ZM14.1891 41.0583C15.4125 39.7102 11.5284 40.5112 14.1891 41.0583V41.0583ZM6.58781 35.4646C8.58 33.8743 4.22766 34.8606 6.58781 35.4646V35.4646ZM109.602 102.326C109.66 100.481 108.079 103.155 109.602 102.326V102.326ZM99.1345 94.9126C99.4317 92.7922 97.7892 95.0974 99.1345 94.9126V94.9126ZM112.48 103.041C115.267 103.051 120.924 102.141 114.862 102.144C113.909 102.297 109.317 102.266 112.48 103.041ZM16.4578 39.7569C18.7139 39.5978 19.9856 37.1774 16.0191 37.3146C9.87375 36.6566 21.4411 39.4996 15.2316 38.6855C14.3981 39.2579 16.4081 39.9159 16.4578 39.7569ZM18.4439 40.8005C18.2077 39.2992 17.7445 41.5981 18.4439 40.8005V40.8005ZM20.8008 34.2809C21.7786 33.0213 19.4461 33.9439 20.8008 34.2809V34.2809ZM13.297 21.2718C17.325 19.8536 22.83 18.257 24.7308 21.9721C22.7962 19.5584 23.9494 17.1794 25.7761 20.7125C28.3598 24.284 29.6527 19.0877 27.9731 17.8884C29.8894 20.356 32.0653 21.5237 29.2542 18.045C32.3105 14.2318 23.1394 18.544 21.0553 18.4992C20.0531 18.9661 10.7011 20.9732 13.2975 21.2718H13.297ZM15.6572 16.5851C17.9536 14.7886 23.5992 17.6564 19.9762 14.7974C19.6209 14.4735 12.0441 16.9663 15.6572 16.5851ZM24.0286 16.944C26.7136 17.014 22.8703 13.1978 26.07 14.9277C25.5459 13.1473 22.343 12.8132 20.7769 12.1012C19.8909 13.7294 22.5783 16.9663 24.0286 16.944V16.944ZM17.1253 9.06021C18.0544 7.75346 15.495 9.72501 17.1253 9.06021V9.06021ZM20.5472 9.90884C24.8775 9.31456 19.4428 7.97571 19.6725 9.86167L20.5467 9.90884H20.5472ZM14.1581 4.72562C11.108 0.594798 19.8933 5.41911 16.7939 1.09376C14.1858 -1.0587 11.6817 3.52051 14.1581 4.72562V4.72562ZM53.2847 26.5892C54.6834 24.019 47.5134 23.1227 52.3439 25.6788C52.7883 25.832 52.688 26.7667 53.2847 26.5892Z" fill="#00EAD3"/>
<path d="M24.8944 122.308C24.585 123.575 24.3933 125.702 24.3216 128.687C24.3216 129.273 24.067 129.567 23.5566 129.567C23.0461 129.567 22.6908 129.311 22.4897 128.8C21.9431 127.42 21.4256 126.458 20.9316 125.908C20.3494 125.266 19.575 124.878 18.6089 124.746C17.5706 124.576 14.9841 124.491 10.8487 124.491C9.90187 124.491 9.28172 124.595 8.99109 124.804C8.80875 124.935 8.71781 125.219 8.71781 125.654V138.498C8.71781 138.933 8.98172 139.14 9.50906 139.122C11.1314 139.102 13.4812 138.987 16.5591 138.781C17.1609 138.704 17.5669 138.502 17.7759 138.17C17.9869 137.84 18.1917 136.986 18.3909 135.605C18.5175 134.849 18.9469 134.556 19.6753 134.727C20.2941 134.859 20.5603 135.152 20.4689 135.605C19.958 138.177 19.793 141.522 19.9753 145.643C19.9945 146.133 19.6941 146.399 19.0739 146.436C18.563 146.493 18.2442 146.209 18.1177 145.585C17.6452 143.223 16.7644 141.961 15.4814 141.799C14.197 141.64 12.105 141.559 9.20953 141.559C8.8814 141.559 8.71781 141.681 8.71781 141.927V154.686C8.71781 155.631 9.0539 156.275 9.7275 156.614C10.2572 156.897 11.3953 157.153 13.1433 157.38C14.0372 157.474 14.4277 157.882 14.3198 158.598C14.2097 159.222 13.4091 159.468 11.9137 159.336C7.59656 158.976 4.03406 158.996 1.22953 159.394C0.44531 159.506 0.0548408 159.175 0.0548408 158.401C0.0548408 157.909 0.44531 157.626 1.22953 157.55C3.015 157.342 3.90703 155.716 3.90703 152.674V128.403C3.90703 127.157 3.69234 126.198 3.26531 125.526C2.8364 124.855 2.03906 124.245 0.874685 123.697C0.14531 123.357 -0.127503 122.894 0.054372 122.308C0.14531 121.949 0.29156 121.75 0.490778 121.713C0.673122 121.655 1.15687 121.693 1.93875 121.827C3.08718 122.015 5.79328 122.11 10.0556 122.11C15.0848 122.11 19.4287 121.996 23.0916 121.77C24.3117 121.693 24.923 121.797 24.923 122.081C24.923 122.158 24.9136 122.232 24.8944 122.308V122.308Z" fill="#00EAD3"/>
<path d="M42.6164 158.299C42.6164 159.055 42.2063 159.386 41.3869 159.291C38.8744 159.045 35.7581 159.082 32.0419 159.403C31.2942 159.48 30.8353 159.46 30.6609 159.348C30.4875 159.234 30.4022 158.923 30.4022 158.411C30.4022 157.958 30.8977 157.576 31.8905 157.263C32.8847 156.952 33.3797 156.021 33.3797 154.471V128.812C33.3797 127.28 33.1655 126.156 32.7384 125.437C32.3095 124.719 31.5581 124.161 30.4838 123.766C29.9184 123.556 29.6353 123.264 29.6353 122.885C29.6353 122.318 30.0455 121.893 30.8653 121.61C32.1047 121.194 33.3895 120.552 34.7198 119.682C35.813 119.001 36.5058 118.662 36.7959 118.662C37.4695 118.662 37.808 119.143 37.808 120.107C37.808 120.033 37.7714 120.977 37.6973 122.942C37.6444 124.813 37.6256 126.656 37.6444 128.472L37.7522 153.79C37.7522 154.943 38.0259 155.78 38.5725 156.3C39.1191 156.819 40.0584 157.164 41.3869 157.334C42.2063 157.428 42.6164 157.749 42.6164 158.298V158.299Z" fill="#00EAD3"/>
<path d="M67.3331 156.627C67.3331 157.025 66.6366 157.624 65.2434 158.426C63.8489 159.23 62.7328 159.632 61.8956 159.632C61.1841 159.632 60.5564 159.273 60.0098 158.555C59.4633 157.836 59.0794 157.478 58.8614 157.478C58.6978 157.478 57.8325 157.866 56.2645 158.639C54.6994 159.415 53.1225 159.803 51.5376 159.803C50.0442 159.803 48.7955 159.348 47.7937 158.443C46.7006 157.44 46.1541 156.079 46.1541 154.359C46.1541 151.089 49.7616 148.746 56.9766 147.328C58.2141 147.082 58.8441 146.562 58.8609 145.768L58.9167 143.953C59.0264 140.854 57.7055 139.305 54.9539 139.305C54.1701 139.305 53.4281 140.031 52.7255 141.486C52.0256 142.943 51.0178 143.727 49.7062 143.841C48.2128 143.991 47.4651 143.339 47.4651 141.884C47.4651 140.976 48.577 139.919 50.7994 138.708C53.1319 137.442 55.3734 136.808 57.5231 136.808C61.2206 136.808 63.0516 138.633 63.0155 142.281L62.9053 153.961C62.8884 155.19 63.3895 155.804 64.4086 155.804C64.6097 155.804 64.9926 155.757 65.5566 155.663C66.1223 155.568 66.4505 155.521 66.5419 155.521C67.0692 155.521 67.3331 155.891 67.3331 156.627V156.627ZM58.9167 150.164C58.9355 149.69 58.8291 149.377 58.6012 149.228C58.3734 149.077 58.0153 149.047 57.5231 149.141C53.1319 149.955 50.9362 151.439 50.9362 153.593C50.9362 155.767 52.0748 156.854 54.352 156.854C55.2633 156.854 56.2026 156.675 57.1664 156.316C58.2975 155.899 58.8614 155.399 58.8614 154.812L58.9167 150.163V150.164Z" fill="#00EAD3"/>
<path d="M87.6506 153.365C87.6506 155.369 86.9062 156.962 85.4226 158.143C83.9381 159.325 81.9117 159.915 79.342 159.915C77.6301 159.915 75.9164 159.727 74.2045 159.348C72.728 159.008 71.872 158.697 71.6353 158.413C71.4891 158.147 71.4169 156.854 71.4169 154.528C71.4169 153.527 71.6353 153.006 72.0731 152.969C72.51 152.912 72.8841 153.158 73.1934 153.706C74.5594 156.182 76.7644 157.421 79.807 157.421C82.3744 157.421 83.6592 156.494 83.6592 154.641C83.6592 153.83 83.3686 153.148 82.7845 152.601C82.1466 151.977 80.9095 151.249 79.0687 150.417C76.4081 149.189 74.6316 148.112 73.7395 147.184C72.7734 146.202 72.2911 144.879 72.2911 143.215C72.2911 141.173 73.0472 139.587 74.5594 138.453C75.9619 137.355 77.8387 136.808 80.1881 136.808C81.6647 136.808 83.0123 136.93 84.2344 137.176C85.5459 137.423 86.2289 137.724 86.2837 138.084C86.4281 139.141 86.73 140.673 87.1856 142.678C87.2405 142.922 86.9841 143.121 86.4206 143.272C85.8187 143.404 85.4184 143.3 85.2173 142.961C83.7787 140.521 81.9572 139.303 79.7517 139.303C77.2561 139.303 76.0078 140.134 76.0078 141.797C76.0078 142.724 76.3453 143.461 77.0189 144.008C77.6208 144.481 79.0322 145.219 81.255 146.222C83.587 147.261 85.1719 148.196 86.0109 149.028C87.1041 150.104 87.6506 151.552 87.6506 153.365Z" fill="#00EAD3"/>
<path d="M119.801 158.327C119.801 158.988 119.372 159.339 118.516 159.376C117.24 159.395 115.572 159.49 113.515 159.66C112.494 159.868 111.765 159.736 111.329 159.264C108.45 156.051 106.008 152.686 104.003 149.169C103.84 148.868 103.631 148.716 103.375 148.716C103.066 148.716 102.529 149 101.764 149.567C100.906 150.058 100.479 150.758 100.479 151.663C100.479 152.307 100.496 153.233 100.534 154.444C100.571 155.653 100.861 156.446 101.407 156.824C101.79 157.09 102.675 157.297 104.058 157.449C104.915 157.563 105.344 157.893 105.344 158.441C105.344 158.876 105.275 159.146 105.138 159.248C105.002 159.352 104.641 159.376 104.058 159.319C102.237 159.15 99.1584 159.244 94.8225 159.603C93.7294 159.697 93.1369 159.555 93.0459 159.177C93.0098 159.046 92.9906 158.856 92.9906 158.61C92.9906 158.025 93.547 157.58 94.6594 157.279C95.6611 157.013 96.1617 155.794 96.1617 153.621V128.84C96.1617 127.291 96.0164 126.214 95.7234 125.609C95.3231 124.834 94.484 124.229 93.209 123.794C92.609 123.587 92.3076 123.294 92.3076 122.915C92.3076 122.366 92.7365 121.941 93.592 121.64C94.9692 121.162 96.2822 120.504 97.4995 119.683C98.5022 119.004 99.1223 118.663 99.3576 118.663C100.106 118.663 100.479 119.153 100.479 120.138C100.479 120.004 100.47 120.941 100.451 122.944C100.431 124.796 100.422 126.649 100.425 128.501L100.479 146.249C100.479 146.741 100.606 146.986 100.861 146.986C101.134 146.986 101.554 146.741 102.119 146.249C103.631 145.02 105.489 143.414 107.693 141.429C108.131 140.957 108.349 140.579 108.349 140.295C108.349 139.786 107.611 139.425 106.137 139.218C105.499 139.141 105.197 138.773 105.233 138.112C105.288 137.45 105.607 137.167 106.19 137.261C107.503 137.451 109.416 137.555 111.929 137.574C113.678 137.592 115.418 137.602 117.15 137.602C117.713 137.621 117.996 137.97 117.996 138.651C117.996 139.293 117.55 139.644 116.658 139.701C115.253 139.756 113.932 140.087 112.695 140.693C110.964 141.504 109.114 142.932 107.146 144.974C107.002 145.087 106.928 145.229 106.928 145.399C106.928 145.663 107.237 146.297 107.858 147.299C110.135 150.89 112.285 153.601 114.307 155.436C115.601 156.588 116.812 157.165 117.941 157.165C118.78 157.165 119.299 157.226 119.498 157.35C119.7 157.473 119.801 157.799 119.801 158.327V158.327Z" fill="#00EAD3"/>
</g>
<defs>
<clipPath id="clip0_4_10">
<rect width="120" height="160" fill="white"/>
</clipPath>
</defs>
</svg>
