<svg width="120" height="120" viewBox="0 0 120 120" fill="none" xmlns="http://www.w3.org/2000/svg">
<g clip-path="url(#clip0_15_113)">
<path d="M115.87 17.34L78.79 58.95C78.6836 59.0616 78.5556 59.1505 78.4137 59.2112C78.2719 59.2719 78.1193 59.3033 77.965 59.3033C77.8108 59.3033 77.6581 59.2719 77.5163 59.2112C77.3745 59.1505 77.2465 59.0616 77.14 58.95L58.21 39.45C58.0519 39.249 57.9659 39.0007 57.9659 38.745C57.9659 38.4893 58.0519 38.241 58.21 38.04L64.36 30C64.4661 29.8573 64.6041 29.7413 64.763 29.6615C64.9218 29.5816 65.0972 29.54 65.275 29.54C65.4529 29.54 65.6282 29.5816 65.7871 29.6615C65.946 29.7413 66.084 29.8573 66.19 30L76.72 41.73C76.827 41.8513 76.9586 41.9485 77.106 42.015C77.2534 42.0815 77.4133 42.116 77.575 42.116C77.7368 42.116 77.8966 42.0815 78.0441 42.015C78.1915 41.9485 78.323 41.8513 78.43 41.73L108.13 1.26C108.21 1.14109 108.257 1.00318 108.266 0.860296C108.275 0.717417 108.246 0.574682 108.182 0.446628C108.118 0.318575 108.021 0.20978 107.901 0.131324C107.781 0.052868 107.643 0.00755483 107.5 0L3.58002 0C3.34928 0 3.128 0.0916605 2.96484 0.254817C2.80168 0.417974 2.71002 0.639262 2.71002 0.87V119.13C2.71002 119.361 2.80168 119.582 2.96484 119.745C3.128 119.908 3.34928 120 3.58002 120H116.41C116.641 120 116.862 119.908 117.025 119.745C117.188 119.582 117.28 119.361 117.28 119.13V18C117.308 17.8264 117.278 17.6486 117.196 17.4933C117.113 17.338 116.983 17.2138 116.823 17.1393C116.664 17.0648 116.485 17.044 116.313 17.0802C116.141 17.1165 115.986 17.2076 115.87 17.34V17.34ZM34.66 106.83C27.2296 107.161 19.9634 104.578 14.41 99.63C14.2388 99.4292 14.1448 99.1739 14.1448 98.91C14.1448 98.6461 14.2388 98.3908 14.41 98.19L18.82 92.01C18.9108 91.8822 19.0277 91.775 19.1629 91.6956C19.2982 91.6162 19.4487 91.5663 19.6046 91.5493C19.7605 91.5323 19.9182 91.5486 20.0674 91.5969C20.2166 91.6453 20.3538 91.7247 20.47 91.83C24.4982 95.5676 29.7949 97.637 35.29 97.62C41.08 97.62 43.9 94.95 43.9 92.13C43.9 83.37 15.4 89.37 15.4 70.74C15.4 62.49 22.54 55.74 34.18 55.74C40.9076 55.5004 47.4941 57.7066 52.72 61.95C52.9076 62.1547 53.0117 62.4223 53.0117 62.7C53.0117 62.9777 52.9076 63.2453 52.72 63.45L48.19 69.45C48.0992 69.5687 47.9854 69.6678 47.8554 69.7414C47.7254 69.815 47.5818 69.8616 47.4333 69.8784C47.2849 69.8952 47.1345 69.8819 46.9913 69.8392C46.8481 69.7965 46.715 69.7254 46.6 69.63C42.7591 66.5665 37.9829 64.9145 33.07 64.95C28.54 64.95 26.02 66.96 26.02 69.93C26.02 77.79 54.46 72.54 54.46 90.93C54.49 99.99 48.04 106.83 34.66 106.83V106.83ZM96.85 89.67C96.85 89.9246 96.7489 90.1688 96.5688 90.3488C96.3888 90.5289 96.1446 90.63 95.89 90.63H69.88C69.838 90.6298 69.7963 90.6384 69.7578 90.6553C69.7193 90.6723 69.6848 90.6971 69.6565 90.7282C69.6282 90.7593 69.6068 90.796 69.5936 90.836C69.5805 90.8759 69.5758 90.9182 69.58 90.96C70.0051 93.3889 71.3186 95.5727 73.2649 97.0865C75.2113 98.6004 77.6513 99.3359 80.11 99.15C83.3409 99.0632 86.4733 98.0191 89.11 96.15C89.213 96.0696 89.3314 96.011 89.4578 95.9779C89.5842 95.9448 89.7161 95.9379 89.8453 95.9576C89.9745 95.9772 90.0983 96.0231 90.2092 96.0923C90.32 96.1615 90.4156 96.2526 90.49 96.36L93.67 101.01C93.8063 101.216 93.8603 101.466 93.8214 101.711C93.7825 101.955 93.6536 102.176 93.46 102.33C89.2669 105.381 84.184 106.963 79 106.83C76.4073 106.974 73.813 106.575 71.3836 105.658C68.9543 104.74 66.7436 103.325 64.8933 101.503C63.043 99.6811 61.5941 97.4924 60.6395 95.0775C59.6849 92.6625 59.2457 90.0747 59.35 87.48C59.2766 84.9486 59.7175 82.4285 60.6461 80.0725C61.5748 77.7164 62.9718 75.5732 64.7527 73.7727C66.5336 71.9721 68.6614 70.5517 71.0071 69.5972C73.3529 68.6428 75.8679 68.1743 78.4 68.22C89.38 68.22 96.82 76.44 96.82 88.47L96.85 89.67ZM78.43 75.93C76.2247 75.8634 74.075 76.6285 72.4077 78.0735C70.7404 79.5185 69.6775 81.5376 69.43 83.73C69.4258 83.7718 69.4305 83.8141 69.4436 83.854C69.4568 83.894 69.4782 83.9307 69.5065 83.9618C69.5348 83.9929 69.5693 84.0177 69.6078 84.0347C69.6463 84.0516 69.688 84.0602 69.73 84.06H87.19C87.2321 84.0602 87.2737 84.0516 87.3122 84.0347C87.3507 84.0177 87.3852 83.9929 87.4135 83.9618C87.4418 83.9307 87.4632 83.894 87.4764 83.854C87.4896 83.8141 87.4942 83.7718 87.49 83.73C87.3136 81.4979 86.2625 79.4259 84.5657 77.965C82.8688 76.5041 80.6636 75.7727 78.43 75.93V75.93Z" fill="#00EAD3"/>
</g>
<defs>
<clipPath id="clip0_15_113">
<rect width="120" height="120" fill="white"/>
</clipPath>
</defs>
</svg>
