<svg width="120" height="120" viewBox="0 0 120 120" fill="none" xmlns="http://www.w3.org/2000/svg">
<path d="M37.54 0C36.105 0 34.675 0 33.24 0.01C32.035 0.02 30.825 0.025 29.62 0.06C28.96 0.075 28.305 0.105 27.645 0.135C25.6654 0.211991 23.6929 0.417423 21.74 0.75C19.1372 1.21023 16.6145 2.04383 14.25 3.225C9.50345 5.63951 5.64381 9.49564 3.225 14.24C2 16.64 1.225 19.1 0.75 21.74C0.285 24.34 0.14 26.99 0.07 29.62C0.037589 30.8264 0.017588 32.0332 0.01 33.24C0 34.675 0 36.105 0 37.54V82.46C0 83.895 0 85.335 0.01 86.77C0.02 87.97 0.035 89.175 0.07 90.38C0.14 93.01 0.285 95.665 0.75 98.26C1.225 100.9 2 103.36 3.225 105.76C5.64099 110.506 9.5014 114.363 14.25 116.775C16.65 117.995 19.1 118.775 21.74 119.25C24.34 119.715 26.99 119.87 29.62 119.94C30.825 119.975 32.035 119.985 33.24 119.99C34.675 120 36.105 120 37.54 120H82.46C83.895 120 85.325 120 86.76 119.99C87.965 119.985 89.175 119.975 90.38 119.94C93.0236 119.909 95.6611 119.678 98.27 119.25C100.876 118.802 103.4 117.968 105.76 116.775C110.504 114.36 114.36 110.504 116.775 105.76C118 103.36 118.775 100.9 119.25 98.26C119.715 95.66 119.87 93.01 119.94 90.38C119.975 89.175 119.985 87.975 119.99 86.77C120 85.335 120 83.895 120 82.46V37.54C120 36.105 120 34.675 119.99 33.24C119.986 32.0332 119.97 30.8265 119.94 29.62C119.908 26.9797 119.678 24.3456 119.25 21.74C118.802 19.1309 117.968 16.6031 116.775 14.24C114.359 9.49696 110.503 5.64093 105.76 3.225C103.4 2.03233 100.876 1.19816 98.27 0.75C95.6611 0.321533 93.0236 0.0908756 90.38 0.06C89.1769 0.0309136 87.9735 0.0142461 86.77 0.01C85.335 0 83.895 0 82.46 0H37.54ZM67.715 17.05C88.285 29.4 100.44 52.86 95.46 72.705C95.34 73.17 95.21 73.61 95.08 74.065L95.09 74.07C105.4 86.76 102.59 100.36 101.27 97.795C95.91 87.365 85.94 89.955 80.83 92.58C80.368 92.8544 79.8995 93.1178 79.425 93.37L79.325 93.43L79.315 93.44C68.74 99.055 54.53 99.465 40.255 93.33C28.6317 88.2933 18.802 79.8614 12.055 69.14C15.3 71.54 18.805 73.65 22.54 75.4C37.635 82.47 52.795 81.955 63.525 75.39C48.255 63.65 35.505 48.35 25.73 35.955C23.8718 33.7871 22.1914 31.4729 20.705 29.035C32.405 39.745 50.895 53.185 57.53 56.915C43.45 42.04 31.04 23.715 31.62 24.3C53.8 46.65 74.26 59.28 74.26 59.28C75.03 59.705 75.61 60.05 76.06 60.345C76.485 59.27 76.86 58.16 77.18 57.005C80.72 44.065 76.73 29.265 67.715 17.045V17.05Z" fill="#00EAD3"/>
</svg>
