<svg width="120" height="120" viewBox="0 0 120 120" fill="none" xmlns="http://www.w3.org/2000/svg">
<g clip-path="url(#clip0_15_120)">
<path d="M60 4L62.952 1.296C62.5772 0.886116 62.1212 0.558774 61.6129 0.334818C61.1047 0.110862 60.5554 -0.00479889 60 -0.00479889C59.4446 -0.00479889 58.8953 0.110862 58.3871 0.334818C57.8788 0.558774 57.4228 0.886116 57.048 1.296L60 4ZM60 108L56.856 110.472C57.2303 110.948 57.7078 111.333 58.2524 111.597C58.797 111.862 59.3945 111.999 60 111.999C60.6055 111.999 61.203 111.862 61.7476 111.597C62.2922 111.333 62.7697 110.948 63.144 110.472L60 108ZM36.984 78.704L33.84 81.184L36.984 78.704ZM38.952 26.968L36 24.256L38.952 26.952V26.968ZM81.048 26.968L84 24.264L81.048 26.96V26.968ZM83.016 78.704L86.16 81.184L83.016 78.704ZM64 120V4H56V120H64ZM63.144 105.528L40.128 76.24L33.84 81.184L56.856 110.48L63.144 105.536V105.528ZM41.896 29.664L62.96 6.704L57.04 1.296L36 24.256L41.888 29.664H41.896ZM57.048 6.704L78.104 29.664L84 24.264L62.952 1.304L57.04 6.696L57.048 6.704ZM79.872 76.232L56.856 105.528L63.144 110.472L86.16 81.176L79.872 76.232V76.232ZM78.104 29.672C83.8684 35.9649 87.2098 44.101 87.5322 52.6289C87.8545 61.1568 85.1369 69.5219 79.864 76.232L86.16 81.176C92.6049 72.9733 95.9258 62.7476 95.5301 52.3234C95.1345 41.8992 91.0481 31.9546 84 24.264L78.104 29.664V29.672ZM40.128 76.232C34.8562 69.521 32.1399 61.1553 32.4637 52.6274C32.7876 44.0995 36.1304 35.9639 41.896 29.672L36 24.256C28.9519 31.9466 24.8655 41.8912 24.4699 52.3154C24.0742 62.7396 27.3951 72.9653 33.84 81.168L40.128 76.224V76.232Z" fill="#00EAD3"/>
</g>
<defs>
<clipPath id="clip0_15_120">
<rect width="120" height="120" fill="white"/>
</clipPath>
</defs>
</svg>
